<svg width="7" height="11" viewBox="0 0 7 11" fill="none" xmlns="http://www.w3.org/2000/svg">
<path d="M7 0.309067C7 0.228056 6.96648 0.150362 6.90681 0.093078C6.84714 0.0357941 6.76621 0.0036122 6.68182 0.0036122H5.09091C4.28981 -0.0346975 3.50547 0.232943 2.90928 0.748055C2.31308 1.26317 1.9535 1.98388 1.90909 2.75271V4.40217H0.318182C0.233795 4.40217 0.152864 4.43435 0.0931934 4.49163C0.0335227 4.54892 0 4.62661 0 4.70762V6.29599C0 6.377 0.0335227 6.45469 0.0931934 6.51198C0.152864 6.56926 0.233795 6.60144 0.318182 6.60144H1.90909V10.6945C1.90909 10.7756 1.94261 10.8533 2.00228 10.9105C2.06195 10.9678 2.14289 11 2.22727 11H4.13636C4.22075 11 4.30168 10.9678 4.36135 10.9105C4.42102 10.8533 4.45455 10.7756 4.45455 10.6945V6.60144H6.12182C6.19258 6.60242 6.26165 6.58072 6.31813 6.53979C6.3746 6.49885 6.41525 6.44101 6.43364 6.37541L6.89182 4.78704C6.90448 4.74191 6.90618 4.69459 6.89679 4.64872C6.8874 4.60286 6.86718 4.55968 6.83767 4.5225C6.80817 4.48532 6.77016 4.45514 6.72659 4.43428C6.68303 4.41341 6.63505 4.40243 6.58636 4.40217H4.45455V2.75271C4.47037 2.60149 4.54435 2.46137 4.66202 2.35971C4.77968 2.25804 4.9326 2.20213 5.09091 2.20289H6.68182C6.76621 2.20289 6.84714 2.17071 6.90681 2.11342C6.96648 2.05614 7 1.97845 7 1.89743V0.309067Z" fill="white"/>
</svg>
