<svg width="121" height="121" viewBox="0 0 121 121" fill="none" xmlns="http://www.w3.org/2000/svg">
<path d="M60.5 0L67.8835 4.41644L76.1586 2.06149L82.1474 8.23845L90.75 8.10546L94.9361 15.622L103.28 17.72L105.378 26.0639L112.895 30.25L112.762 38.8526L118.939 44.8414L116.584 53.1165L121 60.5L116.584 67.8835L118.939 76.1586L112.762 82.1474L112.895 90.75L105.378 94.9361L103.28 103.28L94.9361 105.378L90.75 112.895L82.1474 112.762L76.1586 118.939L67.8835 116.584L60.5 121L53.1165 116.584L44.8414 118.939L38.8526 112.762L30.25 112.895L26.0639 105.378L17.72 103.28L15.622 94.9361L8.10546 90.75L8.23845 82.1474L2.06149 76.1586L4.41644 67.8835L0 60.5L4.41644 53.1165L2.06149 44.8414L8.23845 38.8526L8.10546 30.25L15.622 26.0639L17.72 17.72L26.0639 15.622L30.25 8.10546L38.8526 8.23845L44.8414 2.06149L53.1165 4.41644L60.5 0Z" fill="#9A001A"/>
<path d="M60.5 0L67.8835 4.41644L76.1586 2.06149L82.1474 8.23845L90.75 8.10546L94.9361 15.622L103.28 17.72L105.378 26.0639L112.895 30.25L112.762 38.8526L118.939 44.8414L116.584 53.1165L121 60.5L116.584 67.8835L118.939 76.1586L112.762 82.1474L112.895 90.75L105.378 94.9361L103.28 103.28L94.9361 105.378L90.75 112.895L82.1474 112.762L76.1586 118.939L67.8835 116.584L60.5 121L53.1165 116.584L44.8414 118.939L38.8526 112.762L30.25 112.895L26.0639 105.378L17.72 103.28L15.622 94.9361L8.10546 90.75L8.23845 82.1474L2.06149 76.1586L4.41644 67.8835L0 60.5L4.41644 53.1165L2.06149 44.8414L8.23845 38.8526L8.10546 30.25L15.622 26.0639L17.72 17.72L26.0639 15.622L30.25 8.10546L38.8526 8.23845L44.8414 2.06149L53.1165 4.41644L60.5 0Z" fill="url(#paint0_radial_19_214)" fill-opacity="0.2"/>
<defs>
<radialGradient id="paint0_radial_19_214" cx="0" cy="0" r="1" gradientUnits="userSpaceOnUse" gradientTransform="translate(61 63.5) rotate(90) scale(50)">
<stop stop-opacity="0"/>
<stop offset="1"/>
</radialGradient>
</defs>
</svg>
